<?xml version="1.0" encoding="UTF-8" standalone="no"?>
<svg
   xmlns:dc="http://purl.org/dc/elements/1.1/"
   xmlns:cc="http://creativecommons.org/ns#"
   xmlns:rdf="http://www.w3.org/1999/02/22-rdf-syntax-ns#"
   xmlns:svg="http://www.w3.org/2000/svg"
   xmlns="http://www.w3.org/2000/svg"
   viewBox="0 0 426.29068 644.13202"
   height="644.13202"
   width="426.29068"
   xml:space="preserve"
   id="svg2"
   version="1.1"><metadata
     id="metadata8"><rdf:RDF><cc:Work
         rdf:about=""><dc:format>image/svg+xml</dc:format><dc:type
           rdf:resource="http://purl.org/dc/dcmitype/StillImage" /></cc:Work></rdf:RDF></metadata><defs
     id="defs6"><clipPath
       id="clipPath18"
       clipPathUnits="userSpaceOnUse"><path
         id="path16"
         d="M 0,483.099 H 319.718 V 0 H 0 Z" /></clipPath><linearGradient
       id="linearGradient74"
       spreadMethod="pad"
       gradientTransform="matrix(113.03703,0,0,-113.03703,98.285934,313.02417)"
       gradientUnits="userSpaceOnUse"
       y2="0"
       x2="1"
       y1="0"
       x1="0"><stop
         id="stop60"
         offset="0"
         style="stop-opacity:1;stop-color:#99791f" /><stop
         id="stop62"
         offset="0.11795"
         style="stop-opacity:1;stop-color:#99791f" /><stop
         id="stop64"
         offset="0.496125"
         style="stop-opacity:1;stop-color:#c9c75f" /><stop
         id="stop66"
         offset="0.61633862"
         style="stop-opacity:1;stop-color:#99791f" /><stop
         id="stop68"
         offset="0.797753"
         style="stop-opacity:1;stop-color:#99791f" /><stop
         id="stop70"
         offset="0.988764"
         style="stop-opacity:1;stop-color:#4f3716" /><stop
         id="stop72"
         offset="1"
         style="stop-opacity:1;stop-color:#4f3716" /></linearGradient><clipPath
       id="clipPath84"
       clipPathUnits="userSpaceOnUse"><path
         id="path82"
         d="M 0,483.099 H 319.718 V 0 H 0 Z" /></clipPath><linearGradient
       id="linearGradient174"
       spreadMethod="pad"
       gradientTransform="matrix(57.390072,0,0,-57.390072,201.91063,87.632713)"
       gradientUnits="userSpaceOnUse"
       y2="0"
       x2="1"
       y1="0"
       x1="0"><stop
         id="stop160"
         offset="0"
         style="stop-opacity:1;stop-color:#99791f" /><stop
         id="stop162"
         offset="0.11795"
         style="stop-opacity:1;stop-color:#99791f" /><stop
         id="stop164"
         offset="0.496125"
         style="stop-opacity:1;stop-color:#c9c75f" /><stop
         id="stop166"
         offset="0.61633862"
         style="stop-opacity:1;stop-color:#99791f" /><stop
         id="stop168"
         offset="0.797753"
         style="stop-opacity:1;stop-color:#99791f" /><stop
         id="stop170"
         offset="0.988764"
         style="stop-opacity:1;stop-color:#4f3716" /><stop
         id="stop172"
         offset="1"
         style="stop-opacity:1;stop-color:#4f3716" /></linearGradient><linearGradient
       id="linearGradient204"
       spreadMethod="pad"
       gradientTransform="matrix(57.390072,0,0,-57.390072,54.853455,87.632713)"
       gradientUnits="userSpaceOnUse"
       y2="0"
       x2="1"
       y1="0"
       x1="0"><stop
         id="stop190"
         offset="0"
         style="stop-opacity:1;stop-color:#99791f" /><stop
         id="stop192"
         offset="0.11795"
         style="stop-opacity:1;stop-color:#99791f" /><stop
         id="stop194"
         offset="0.496125"
         style="stop-opacity:1;stop-color:#c9c75f" /><stop
         id="stop196"
         offset="0.61633862"
         style="stop-opacity:1;stop-color:#99791f" /><stop
         id="stop198"
         offset="0.797753"
         style="stop-opacity:1;stop-color:#99791f" /><stop
         id="stop200"
         offset="0.988764"
         style="stop-opacity:1;stop-color:#4f3716" /><stop
         id="stop202"
         offset="1"
         style="stop-opacity:1;stop-color:#4f3716" /></linearGradient><linearGradient
       id="linearGradient234"
       spreadMethod="pad"
       gradientTransform="matrix(7.3335485,0,0,-7.3335485,217.45195,196.343)"
       gradientUnits="userSpaceOnUse"
       y2="0"
       x2="1"
       y1="0"
       x1="0"><stop
         id="stop220"
         offset="0"
         style="stop-opacity:1;stop-color:#99791f" /><stop
         id="stop222"
         offset="0.11795"
         style="stop-opacity:1;stop-color:#99791f" /><stop
         id="stop224"
         offset="0.496125"
         style="stop-opacity:1;stop-color:#c9c75f" /><stop
         id="stop226"
         offset="0.61633862"
         style="stop-opacity:1;stop-color:#99791f" /><stop
         id="stop228"
         offset="0.797753"
         style="stop-opacity:1;stop-color:#99791f" /><stop
         id="stop230"
         offset="0.988764"
         style="stop-opacity:1;stop-color:#4f3716" /><stop
         id="stop232"
         offset="1"
         style="stop-opacity:1;stop-color:#4f3716" /></linearGradient></defs><g
     transform="matrix(1.3333333,0,0,-1.3333333,0,644.132)"
     id="g10"><g
       id="g12"><g
         clip-path="url(#clipPath18)"
         id="g14"><g
           transform="translate(105.7104,131.7467)"
           id="g20"><path
             id="path22"
             style="fill:#231f20;fill-opacity:1;fill-rule:nonzero;stroke:none"
             d="M 0,0 C 0.345,0.346 1.975,1.926 2.518,1.926 3.011,1.926 3.259,1.58 3.011,0.79 L 3.11,0.691 c 4.79,4.148 7.9,8.591 7.9,10.22 0,0.84 -0.544,1.185 -1.333,0.988 -0.889,-0.247 -6.517,-0.445 -17.576,-13.38 -3.457,-4.048 -5.975,-9.528 -5.975,-13.281 0,-3.506 1.679,-5.579 5.234,-5.579 6.221,0 17.083,8.097 21.773,12.244 0.148,-2.518 -0.642,-3.209 -2.518,-4.986 -9.628,-9.282 -17.824,-12.245 -22.464,-12.245 -5.481,0 -9.43,3.407 -9.43,9.085 0,7.257 6.072,15.058 11.158,19.847 4.196,3.999 14.565,11.899 20.44,11.899 2.962,0 4.888,-1.58 5.036,-4.69 C 15.7,4.147 2.962,-8.492 -3.259,-9.43 c -1.432,-0.198 -2.764,0.79 -2.764,2.37 0,1.481 1.332,2.963 2.37,3.851 z" /></g><g
           transform="translate(122.2475,117.528)"
           id="g24"><path
             id="path26"
             style="fill:#231f20;fill-opacity:1;fill-rule:nonzero;stroke:none"
             d="m 0,0 c 0.049,-0.247 0.246,-1.136 0.987,-0.988 0.988,0.198 2.518,0.049 12.294,9.924 L 13.182,9.034 C 1.431,5.431 0,2.419 0,0 m 5.974,-1.284 c -0.938,-0.74 -4.098,-3.308 -5.233,-3.308 -1.383,0 -4.247,3.259 -4.346,5.826 -0.197,6.172 12.639,12.491 18.367,12.639 2.271,0.05 3.209,-1.777 3.209,-2.369 0,-0.593 -1.284,-1.087 -1.728,-1.234 0.939,-0.396 1.432,-0.939 1.432,-2.025 0,-1.58 -4.295,-5.036 -4.295,-7.357 0,-0.839 0.74,-1.185 1.53,-1.185 2.074,0 4.888,2.518 7.011,3.95 l 0.395,-1.826 c -2.123,-2.419 -8.739,-7.703 -11.158,-7.703 -1.629,0 -2.37,1.185 -2.37,2.617 0,1.58 1.185,4.197 1.827,5.53 L 10.516,2.37 Z" /></g><g
           transform="translate(167.3218,122.6628)"
           id="g28"><path
             id="path30"
             style="fill:#231f20;fill-opacity:1;fill-rule:nonzero;stroke:none"
             d="m 0,0 0.396,-2.173 c -2.617,-2.32 -7.703,-8.393 -11.307,-8.393 -1.876,0 -2.765,1.58 -2.765,3.258 0,2.962 2.667,6.221 4.246,8.493 l -0.098,0.098 c -2.864,-2.123 -5.382,-4.69 -7.603,-7.554 -0.741,-0.938 -2.568,-3.357 -3.901,-3.357 -2.173,0 -2.716,3.111 -2.765,4.789 -0.148,3.407 2.962,8.393 5.826,10.813 0.642,0.542 1.086,0.592 1.926,0.592 2.962,-0.098 2.715,-0.789 2.715,-1.086 0,-1.926 -6.221,-6.912 -6.221,-8.097 0,-0.296 0.247,-0.543 0.544,-0.543 0.345,0 0.789,0.444 0.987,0.691 3.95,5.036 13.034,11.109 14.466,11.109 0.197,0 0.493,-0.247 0.79,-0.938 0.295,-0.741 0.592,-1.63 0.74,-2.666 0,-1.926 -6.073,-5.678 -6.073,-9.085 0,-0.444 0.396,-0.889 0.889,-0.889 1.185,0 3.358,1.729 4.246,2.469 z" /></g><g
           transform="translate(170.9248,118.8611)"
           id="g32"><path
             id="path34"
             style="fill:#231f20;fill-opacity:1;fill-rule:nonzero;stroke:none"
             d="M 0,0 C -0.049,-0.445 0.197,-0.84 0.74,-0.939 1.333,-1.087 9.282,4.838 10.072,7.751 1.382,4.937 0.296,3.258 0,0 m 15.75,9.282 c -1.63,-2.568 -4,-5.777 -4,-8.937 0,-0.79 0.05,-2.468 1.136,-2.468 1.679,0 6.22,3.999 7.801,5.036 l 0.345,-1.629 c -2.32,-2.568 -7.406,-7.752 -11.01,-7.752 -1.876,0 -2.616,1.975 -2.616,3.555 0,1.234 0.197,2.517 0.394,3.752 -1.728,-1.481 -6.319,-6.27 -8.541,-6.27 -2.222,0 -3.604,4.74 -3.604,6.467 0,5.827 9.825,10.764 14.021,11.01 1.038,0.05 1.432,-0.641 2.074,-1.382 1.629,2.814 5.975,13.034 9.579,13.034 0.987,0 1.579,-0.987 1.579,-1.876 0,-1.481 -1.332,-3.505 -2.122,-4.74 z" /></g><g
           transform="translate(197.1382,126.8097)"
           id="g36"><path
             id="path38"
             style="fill:#231f20;fill-opacity:1;fill-rule:nonzero;stroke:none"
             d="M 0,0 C 3.506,3.259 6.567,7.998 7.456,10.813 5.036,9.627 2.222,5.184 -0.099,0.099 Z m 10.22,-6.616 c -2.716,-2.814 -7.356,-7.8 -11.602,-7.8 -3.604,0 -4.395,3.505 -4.395,6.418 0,5.183 2.223,10.763 5.432,14.713 4.344,5.381 9.035,9.973 10.615,9.973 0.839,0 1.036,-1.185 0.988,-1.827 -0.347,-4.69 -1.63,-9.035 -12.344,-19.403 -0.444,-0.84 -0.592,-2.222 -0.345,-3.407 0.444,-1.136 1.135,-2.123 2.468,-2.123 2.715,0 6.517,3.16 8.492,4.937 z" /></g><g
           transform="translate(218.6636,128.1923)"
           id="g40"><path
             id="path42"
             style="fill:#231f20;fill-opacity:1;fill-rule:nonzero;stroke:none"
             d="M 0,0 C 0,0.345 -0.247,0.642 -0.592,0.543 -3.061,-0.099 -5.925,-2.469 -7.258,-5.727 -2.913,-4.247 0.049,-0.84 0,0 m 6.122,-7.949 c -3.012,-3.505 -8.443,-8.147 -13.331,-8.147 -3.604,0 -5.283,3.21 -5.381,6.468 -0.198,6.468 6.962,13.084 13.379,13.035 1.581,0 3.556,-0.396 3.556,-2.371 0,-2.419 -2.419,-6.072 -11.899,-9.182 l -0.099,-1.087 c -0.148,-1.876 1.481,-2.518 3.061,-2.518 3.505,0 7.653,3.605 10.27,5.678 z" /></g><g
           transform="translate(224.4879,120.3417)"
           id="g44"><path
             id="path46"
             style="fill:#231f20;fill-opacity:1;fill-rule:nonzero;stroke:none"
             d="m 0,0 c 1.827,-0.099 2.913,-1.629 3.851,-2.913 2.963,1.827 3.752,2.667 3.901,5.53 C 7.603,3.653 7.406,4.986 7.11,6.666 Z m 16.787,1.037 0.494,-1.876 C 14.269,-3.851 8.887,-8.344 4.938,-8.146 1.63,-7.998 -2.024,-6.122 -2.913,-2.518 -3.209,-2.814 -3.554,-3.16 -3.999,-3.16 c -0.494,0 -0.839,0.494 -0.839,0.939 0,0.642 0.79,1.333 1.185,1.727 L 7.06,9.332 c 0.099,1.629 1.038,3.209 2.815,3.209 1.481,0 1.777,-0.445 1.926,-1.827 0.196,-1.876 0.937,-3.555 0.937,-5.728 0,-4.047 -3.259,-7.06 -6.418,-8.985 3.159,-0.543 5.085,0.938 7.505,2.765 z" /></g></g></g><g
       id="g48"><g
         id="g50"><g
           id="g56"><g
             id="g58"><path
               id="path76"
               style="fill:url(#linearGradient74);stroke:none"
               d="M 121.427,379.627 C 105.737,362.079 98.643,340.951 98.298,317.591 v 0 c -0.418,-28.336 9.755,-52.099 31.531,-70.576 v 0 c 7.533,-6.391 15.882,-11.49 25.13,-15.582 v 0 c 0.08,0.75 0.184,1.188 0.166,1.622 v 0 c -1.103,26.476 0.113,49.735 0.894,83.391 v 0 c 0.515,25.379 7.876,27.902 12.594,28.175 v 0 c 4.477,0.258 7.993,-1.944 9.594,-5.944 v 0 c 1.847,-4.616 3.717,-9.507 4.044,-14.382 v 0 c 0.534,-7.957 -0.184,-15.997 -0.356,-24.004 v 0 c -0.512,-23.844 -1.016,-47.689 -1.518,-71.533 v 0 c -0.023,-1.109 -0.003,-2.219 -0.003,-3.231 v 0 c 10.684,-2.439 17.795,1.378 19.735,10.39 v 0 c 0.455,2.115 0.668,4.309 0.736,6.475 v 0 c 0.463,14.785 0.942,29.571 1.197,44.361 v 0 c 0.047,2.731 0.949,4.007 3.4,5.034 v 0 c 4.801,2.012 6.693,5.089 5.563,8.949 v 0 c -0.595,2.033 -2.054,3.796 -2.919,5.772 v 0 c -0.592,1.353 -1.017,2.838 -1.195,4.304 v 0 c -0.482,3.953 -0.379,8.025 -1.282,11.867 v 0 c -0.963,4.096 -3.388,7.236 -7.777,8.851 v 0 c -2.8,1.031 -5.168,3.237 -7.929,5.047 v 0 c 7.493,8.168 10.532,15.852 10.422,25.668 v 0 c -0.082,7.199 -8.587,20.712 -14.539,22.843 v 0 c -0.203,-2.671 -0.415,-5.294 -0.603,-7.919 v 0 c -0.622,-8.688 -1.272,-17.375 -1.827,-26.067 v 0 c -0.145,-2.264 -1.133,-2.758 -3.128,-2.076 v 0 c -5.632,1.925 -10.015,7.367 -9.529,13.224 v 0 c 0.41,4.938 1.224,10.092 3.15,14.597 v 0 c 3.002,7.016 11.429,22.065 12.026,23.57 v 0 c -4.369,0.309 -8.098,0.735 -11.835,0.808 v 0 c -0.605,0.011 -1.205,0.017 -1.805,0.017 v 0 c -19.891,0 -37.314,-6.523 -50.808,-21.615" /></g></g></g></g><g
       id="g78"><g
         clip-path="url(#clipPath84)"
         id="g80"><g
           transform="translate(66.2917,168.1284)"
           id="g86"><path
             id="path88"
             style="fill:#231f20;fill-opacity:1;fill-rule:nonzero;stroke:none"
             d="m 0,0 c 1.131,-3.319 6.993,-4.519 11.863,-2.188 2.543,1.057 4.874,3.319 5.933,6.638 1.34,3.669 -1.765,6.777 -4.307,8.822 -2.754,1.982 -4.379,3.108 -6.71,4.805 -2.329,1.908 -4.8,4.588 -6.071,6.919 -3.462,6.284 -2.048,13.98 5.296,17.722 4.094,2.051 8.473,2.828 12.992,2.405 6.285,-0.708 11.438,-3.816 13.346,-9.181 0.846,-2.611 0.846,-5.719 0.14,-9.039 l -9.532,4.235 c 1.2,3.038 2.682,8.689 -2.683,9.465 -1.977,0.138 -4.307,-0.496 -6.284,-1.838 -2.12,-1.412 -3.602,-4.52 -3.32,-6.708 0.283,-2.188 0.495,-2.473 1.766,-4.096 1.128,-1.412 3.531,-3.319 5.79,-4.731 2.471,-1.696 5.085,-3.319 7.062,-5.222 2.048,-1.697 3.599,-3.747 4.165,-6.501 4.519,-22.03 -33.4,-27.464 -36.082,-10.376" /></g><g
           transform="translate(133.0607,170.0592)"
           id="g90"><path
             id="path92"
             style="fill:#231f20;fill-opacity:1;fill-rule:nonzero;stroke:none"
             d="m 0,0 c -4.63,-12.932 -20.099,-12.872 -18.18,-2.202 0.961,5.36 1.862,10.05 2.597,14.509 1.187,6.096 -4.461,2.542 -7.001,-2.202 l -3.952,-19.819 h -7.735 l 8.018,39.468 h 7.507 l -2.992,-15.02 C -15.695,21.06 -6.266,20.605 -8.581,8.298 -9.259,4.344 -9.992,0.11 -10.728,-3.673 -11.914,-10.445 -4.009,-5.42 -2.202,0 Z" /></g><g
           transform="translate(149.7904,183.3271)"
           id="g94"><path
             id="path96"
             style="fill:#231f20;fill-opacity:1;fill-rule:nonzero;stroke:none"
             d="m 0,0 c -3.446,6.266 -10.107,0.17 -12.084,-8.979 -2.145,-10.219 1.581,-15.525 9.374,-5.024 z m 15.3,-13.383 c -3.896,-10.39 -17.447,-14.058 -18.18,-4.349 -5.986,-8.919 -18.858,-7.282 -17.842,4.404 0.79,9.094 5.252,18.183 15.357,18.523 H 8.921 L 8.468,3.048 C 6.719,-5.59 5.533,-10.615 4.234,-17.107 c -1.241,-6.44 7.002,-1.581 8.864,3.724 z" /></g><g
           transform="translate(189.6123,186.6555)"
           id="g98"><path
             id="path100"
             style="fill:#231f20;fill-opacity:1;fill-rule:nonzero;stroke:none"
             d="m 0,0 -5.25,-4.344 c -4.574,3.328 -8.751,-1.016 -11.631,-5.706 l -3.161,-16.316 h -7.963 l 5.703,28.233 h 7.735 l -1.186,-6.156 C -12.194,1.637 -7.395,4.404 0,0" /></g><g
           transform="translate(204.9389,184.9086)"
           id="g102"><path
             id="path104"
             style="fill:#231f20;fill-opacity:1;fill-rule:nonzero;stroke:none"
             d="m 0,0 c -2.655,-1.411 -6.156,-6.606 -8.13,-9.093 l -0.566,-2.708 c 0.621,0.225 1.129,0.45 1.582,0.675 C 1.919,-7.342 4.404,2.483 0,0 M 4.967,-24.619 H -3.05 l -6.266,9.71 -1.75,-9.71 h -7.905 l 7.848,39.523 h 7.622 C -4.8,7.848 -5.986,2.427 -7.34,-4.63 c 1.92,2.653 4.685,5.926 7.395,7.508 8.018,4.91 10.39,-9.259 -3.105,-14.964 z" /></g><g
           transform="translate(231.8263,170.2845)"
           id="g106"><path
             id="path108"
             style="fill:#231f20;fill-opacity:1;fill-rule:nonzero;stroke:none"
             d="m 0,0 c -4.459,-12.197 -21.511,-15.47 -18.348,0.336 l 3.726,17.902 h 7.79 C -8.638,8.694 -9.937,2.878 -11.236,-3.784 -12.535,-10.56 -4.121,-5.535 -2.202,0 Z" /></g><g
           transform="translate(249.565,183.3271)"
           id="g110"><path
             id="path112"
             style="fill:#231f20;fill-opacity:1;fill-rule:nonzero;stroke:none"
             d="m 0,0 c -3.443,6.266 -10.107,0.17 -12.084,-8.979 -2.145,-10.219 1.581,-15.525 9.374,-5.024 z m 15.3,-13.383 c -3.896,-10.39 -17.447,-14.058 -18.18,-4.349 -5.984,-8.919 -18.858,-7.282 -17.842,4.404 0.79,9.094 5.252,18.183 15.357,18.523 H 8.921 L 8.468,3.048 C 6.719,-5.59 5.533,-10.615 4.234,-17.107 c -1.241,-6.44 7.002,-1.581 8.864,3.724 z" /></g><g
           transform="translate(119.5445,84.7336)"
           id="g114"><path
             id="path116"
             style="fill:#231f20;fill-opacity:1;fill-rule:nonzero;stroke:none"
             d="m 0,0 0.898,0.37 c 0.301,-0.795 0.689,-1.382 1.159,-1.763 0.471,-0.381 1.049,-0.571 1.731,-0.571 0.707,0 1.274,0.199 1.705,0.598 0.427,0.397 0.643,0.921 0.643,1.571 0,0.517 -0.14,0.944 -0.42,1.278 C 5.432,1.818 4.955,2.124 4.28,2.4 3.913,2.547 3.425,2.723 2.818,2.93 2.212,3.136 1.824,3.289 1.652,3.389 1.113,3.702 0.732,4.034 0.506,4.387 0.276,4.739 0.165,5.175 0.165,5.692 0.165,6.619 0.449,7.347 1.02,7.879 1.587,8.41 2.37,8.676 3.368,8.676 4.251,8.676 4.983,8.457 5.561,8.022 6.136,7.586 6.574,6.918 6.879,6.017 L 6.003,5.739 C 5.723,6.434 5.367,6.947 4.933,7.279 4.499,7.611 3.96,7.777 3.321,7.777 2.703,7.777 2.201,7.599 1.813,7.242 1.429,6.883 1.239,6.418 1.239,5.843 1.239,5.411 1.361,5.046 1.612,4.75 1.86,4.452 2.247,4.211 2.768,4.025 2.973,3.949 3.264,3.845 3.644,3.714 4.743,3.343 5.45,3.048 5.766,2.831 6.276,2.499 6.646,2.136 6.872,1.739 7.102,1.345 7.216,0.878 7.216,0.339 7.216,-0.637 6.908,-1.415 6.294,-1.993 5.676,-2.572 4.84,-2.861 3.788,-2.861 2.843,-2.861 2.064,-2.63 1.45,-2.167 0.84,-1.704 0.355,-0.982 0,0" /></g><path
           id="path118"
           style="fill:#231f20;fill-opacity:1;fill-rule:nonzero;stroke:none"
           d="m 128.786,90.148 h 0.959 v -8.087 h -0.959 z m -0.104,3.08 h 1.16 v -1.366 h -1.16 z" /><g
           transform="translate(132.394,82.0606)"
           id="g120"><path
             id="path122"
             style="fill:#231f20;fill-opacity:1;fill-rule:nonzero;stroke:none"
             d="M 0,0 V 8.087 H 0.959 V 6.818 c 0.474,0.468 0.944,0.82 1.414,1.057 0.467,0.237 0.93,0.356 1.39,0.356 0.725,0 1.267,-0.218 1.63,-0.65 C 5.755,7.148 5.935,6.497 5.935,5.626 V 0 H 4.976 V 5.285 C 4.976,6.091 4.865,6.644 4.639,6.944 4.412,7.242 4.025,7.392 3.472,7.392 3.066,7.392 2.653,7.267 2.23,7.014 1.809,6.762 1.386,6.387 0.959,5.89 V 0 Z" /></g><g
           transform="translate(145.5559,84.3943)"
           id="g124"><path
             id="path126"
             style="fill:#231f20;fill-opacity:1;fill-rule:nonzero;stroke:none"
             d="M 0,0 0.725,-0.4 C 0.37,-1.131 -0.032,-1.659 -0.485,-1.982 -0.937,-2.307 -1.497,-2.47 -2.169,-2.47 c -1.012,0 -1.813,0.37 -2.405,1.111 -0.589,0.74 -0.887,1.743 -0.887,3.012 0,1.304 0.291,2.339 0.873,3.108 0.581,0.766 1.357,1.15 2.33,1.15 0.7,0 1.292,-0.179 1.773,-0.54 C 0,5.012 0.381,4.47 0.664,3.745 L -0.176,3.42 C -0.391,3.998 -0.668,4.427 -1.002,4.703 -1.336,4.98 -1.745,5.118 -2.23,5.118 -2.937,5.118 -3.493,4.82 -3.888,4.224 -4.287,3.628 -4.484,2.799 -4.484,1.736 c 0,-1.102 0.197,-1.951 0.599,-2.544 0.399,-0.594 0.973,-0.892 1.716,-0.892 0.485,0 0.894,0.131 1.228,0.393 C -0.607,-1.045 -0.294,-0.61 0,0" /></g><g
           transform="translate(152.6431,86.8249)"
           id="g128"><path
             id="path130"
             style="fill:#231f20;fill-opacity:1;fill-rule:nonzero;stroke:none"
             d="m 0,0 c -0.018,0.851 -0.215,1.512 -0.585,1.982 -0.37,0.47 -0.88,0.705 -1.53,0.705 -0.649,0 -1.177,-0.235 -1.587,-0.709 C -4.114,1.504 -4.355,0.846 -4.43,0 Z m 0.233,-2.431 0.711,-0.386 c -0.355,-0.728 -0.779,-1.26 -1.26,-1.588 -0.485,-0.331 -1.077,-0.496 -1.781,-0.496 -1.009,0 -1.809,0.372 -2.402,1.115 -0.596,0.741 -0.89,1.745 -0.89,3.009 0,1.303 0.294,2.339 0.887,3.107 0.589,0.767 1.382,1.151 2.373,1.151 0.984,0 1.73,-0.334 2.251,-1.004 C 0.639,1.808 0.898,0.835 0.898,-0.438 V -0.695 L -4.43,-0.702 c 0.003,-1.107 0.211,-1.955 0.621,-2.545 0.409,-0.589 1.001,-0.884 1.77,-0.884 0.513,0 0.951,0.135 1.307,0.401 0.359,0.267 0.678,0.7 0.965,1.299" /></g><g
           transform="translate(163.7693,93.2281)"
           id="g132"><path
             id="path134"
             style="fill:#231f20;fill-opacity:1;fill-rule:nonzero;stroke:none"
             d="m 0,0 v -10.299 h 1.774 v -0.869 h -4.56 v 0.869 h 1.856 v 9.15 l -2.068,-0.278 v 0.65 c 0.575,0.14 1.052,0.271 1.44,0.391 0.388,0.122 0.732,0.25 1.027,0.386 z" /></g><g
           transform="translate(175.0858,89.2035)"
           id="g136"><path
             id="path138"
             style="fill:#231f20;fill-opacity:1;fill-rule:nonzero;stroke:none"
             d="M 0,0 C -0.047,1.082 -0.302,1.906 -0.772,2.472 -1.239,3.039 -1.899,3.323 -2.75,3.323 -3.579,3.323 -4.244,3.077 -4.743,2.587 -5.242,2.095 -5.49,1.434 -5.49,0.603 c 0,-0.824 0.241,-1.493 0.722,-2.003 0.481,-0.512 1.106,-0.767 1.874,-0.767 0.621,0 1.174,0.182 1.659,0.544 C -0.75,-1.26 -0.337,-0.72 0,0 m 0.043,-1.397 c -0.38,-0.533 -0.822,-0.937 -1.321,-1.208 -0.496,-0.273 -1.052,-0.407 -1.659,-0.407 -1.07,0 -1.921,0.316 -2.556,0.951 -0.639,0.634 -0.955,1.492 -0.955,2.574 0,1.128 0.33,2.022 0.991,2.684 0.664,0.663 1.554,0.993 2.678,0.993 1.257,0 2.208,-0.436 2.847,-1.309 0.639,-0.874 0.959,-2.179 0.959,-3.915 0,-1.939 -0.392,-3.472 -1.171,-4.603 -0.782,-1.129 -1.831,-1.694 -3.148,-1.694 -0.471,0 -0.927,0.077 -1.372,0.233 -0.445,0.156 -0.883,0.393 -1.317,0.711 l 0.416,0.761 c 0.402,-0.302 0.794,-0.526 1.171,-0.675 0.376,-0.149 0.75,-0.223 1.116,-0.223 1.002,0 1.795,0.453 2.384,1.356 0.585,0.903 0.898,2.159 0.937,3.771" /></g><g
           transform="translate(181.6883,88.3041)"
           id="g140"><path
             id="path142"
             style="fill:#231f20;fill-opacity:1;fill-rule:nonzero;stroke:none"
             d="M 0,0 C 0.775,0.278 1.357,0.603 1.738,0.978 2.122,1.354 2.312,1.784 2.312,2.273 2.312,2.892 2.1,3.378 1.677,3.73 1.257,4.082 0.671,4.26 -0.075,4.26 -0.822,4.26 -1.422,4.086 -1.863,3.737 -2.305,3.391 -2.528,2.93 -2.528,2.357 -2.528,1.874 -2.341,1.454 -1.964,1.099 -1.59,0.745 -0.933,0.379 0,0 m -0.151,-0.695 c -0.955,-0.335 -1.655,-0.721 -2.1,-1.154 -0.445,-0.433 -0.668,-0.944 -0.668,-1.533 0,-0.679 0.259,-1.219 0.779,-1.616 0.521,-0.398 1.232,-0.596 2.126,-0.596 0.861,0 1.547,0.201 2.053,0.604 0.51,0.403 0.765,0.944 0.765,1.624 0,0.639 -0.215,1.156 -0.643,1.551 -0.427,0.395 -1.199,0.768 -2.312,1.12 m -1.177,0.372 c -0.744,0.341 -1.293,0.727 -1.645,1.154 -0.352,0.427 -0.528,0.926 -0.528,1.495 0,0.841 0.306,1.514 0.92,2.02 0.614,0.506 1.439,0.759 2.477,0.759 1.066,0 1.896,-0.247 2.488,-0.745 C 2.976,3.865 3.271,3.17 3.271,2.273 3.271,1.7 3.095,1.199 2.747,0.775 2.395,0.35 1.863,-0.016 1.149,-0.323 2.036,-0.641 2.693,-1.041 3.12,-1.524 3.547,-2.007 3.763,-2.592 3.763,-3.276 3.763,-4.263 3.432,-5.037 2.772,-5.601 2.115,-6.166 1.206,-6.448 0.054,-6.448 c -1.232,0 -2.201,0.282 -2.897,0.842 -0.701,0.562 -1.052,1.334 -1.052,2.316 0,0.639 0.201,1.188 0.596,1.649 0.398,0.46 1.055,0.9 1.971,1.318" /></g><g
           transform="translate(188.1795,86.062)"
           id="g144"><path
             id="path146"
             style="fill:#231f20;fill-opacity:1;fill-rule:nonzero;stroke:none"
             d="m 0,0 c 0.05,-1.086 0.305,-1.912 0.768,-2.475 0.463,-0.564 1.12,-0.846 1.971,-0.846 0.83,0 1.494,0.244 1.989,0.736 0.496,0.49 0.744,1.152 0.744,1.989 0,0.82 -0.237,1.483 -0.715,1.989 C 4.276,1.899 3.651,2.152 2.876,2.152 2.255,2.152 1.705,1.973 1.224,1.616 0.743,1.258 0.337,0.72 0,0 M -0.061,1.397 C 0.32,1.935 0.761,2.341 1.264,2.614 1.763,2.885 2.316,3.021 2.919,3.021 3.992,3.021 4.847,2.702 5.479,2.066 6.114,1.429 6.43,0.571 6.43,-0.506 6.43,-1.634 6.103,-2.529 5.446,-3.194 4.789,-3.858 3.903,-4.19 2.786,-4.19 c -1.271,0 -2.222,0.438 -2.861,1.314 -0.643,0.876 -0.963,2.181 -0.963,3.919 0,1.932 0.392,3.465 1.174,4.594 0.783,1.131 1.835,1.694 3.156,1.694 0.467,0 0.919,-0.075 1.361,-0.229 C 5.095,6.949 5.533,6.71 5.971,6.389 L 5.547,5.619 C 5.134,5.926 4.743,6.154 4.366,6.305 3.992,6.455 3.623,6.532 3.26,6.532 2.265,6.532 1.472,6.08 0.887,5.177 0.298,4.272 -0.018,3.012 -0.061,1.397" /></g></g></g><g
       id="g148"><g
         id="g150"><g
           id="g156"><g
             id="g158"><path
               id="path176"
               style="fill:url(#linearGradient174);stroke:none"
               d="m 203.868,87.786 -1.957,-2.2 57.39,2.2 -57.247,1.893 z" /></g></g></g></g><g
       id="g178"><g
         id="g180"><g
           id="g186"><g
             id="g188"><path
               id="path206"
               style="fill:url(#linearGradient204);stroke:none"
               d="m 54.853,87.786 57.39,-2.2 -1.957,2.2 1.814,1.893 z" /></g></g></g></g><g
       id="g208"><g
         id="g210"><g
           id="g216"><g
             id="g218"><path
               id="path236"
               style="fill:url(#linearGradient234);stroke:none"
               d="m 219.335,202.299 c -0.12,-0.168 -0.117,-0.393 0.008,-0.558 v 0 c 1.337,-1.75 0.18,-2.998 0.031,-3.147 v 0 c -3.886,-4.106 -0.683,-8.186 -0.649,-8.227 v 0 c 0.087,-0.111 0.224,-0.175 0.366,-0.175 v 0 h 0.929 c -0.078,0 -0.147,0.044 -0.18,0.113 v 0 c -0.613,1.303 -0.719,2.442 -0.316,3.388 v 0 c 0.542,1.262 1.797,1.693 1.849,1.711 v 0 c 0.084,0.027 0.176,0 0.226,-0.073 v 0 c 0.049,-0.072 0.049,-0.168 -0.005,-0.238 v 0 c -0.567,-0.741 -0.075,-1.273 -0.013,-1.335 v 0 c 1.648,-1.744 0.29,-3.475 0.275,-3.493 v 0 c -0.037,-0.046 -0.093,-0.073 -0.155,-0.073 v 0 h 1.353 c 0.181,0 0.347,0.103 0.423,0.27 v 0 c 1.445,3.069 1.695,5.752 0.742,7.975 v 0 c -1.275,2.979 -4.229,3.992 -4.355,4.034 v 0 c -0.049,0.016 -0.099,0.024 -0.148,0.024 v 0 c -0.149,0 -0.292,-0.07 -0.381,-0.196" /></g></g></g></g></g></svg>